<mxfile host="Electron" modified="2024-04-18T14:06:07.611Z" agent="Mozilla/5.0 (Windows NT 10.0; Win64; x64) AppleWebKit/537.36 (KHTML, like Gecko) draw.io/24.2.5 Chrome/120.0.6099.109 Electron/28.1.0 Safari/537.36" etag="cpA9CJwJWjewa7LiUcAu" version="24.2.5" type="device">
  <diagram id="C5RBs43oDa-KdzZeNtuy" name="Page-1">
    <mxGraphModel dx="1674" dy="1644" grid="1" gridSize="10" guides="1" tooltips="1" connect="1" arrows="1" fold="1" page="0" pageScale="1" pageWidth="827" pageHeight="1169" background="#ffffff" math="0" shadow="0">
      <root>
        <mxCell id="WIyWlLk6GJQsqaUBKTNV-0" />
        <mxCell id="WIyWlLk6GJQsqaUBKTNV-1" parent="WIyWlLk6GJQsqaUBKTNV-0" />
        <mxCell id="9R3Qapy6K9j2R_b-Bp_k-57" value="#include &amp;lt;iostream&amp;gt;&lt;div&gt;#include &amp;lt;cmath&amp;gt;&lt;/div&gt;&lt;div&gt;using namespace std;&lt;/div&gt;&lt;div&gt;int x;&lt;/div&gt;&lt;div&gt;int n;&lt;/div&gt;&lt;div&gt;double s = 0;&lt;/div&gt;&lt;div&gt;double fact = 1;&lt;/div&gt;" style="whiteSpace=wrap;html=1;aspect=fixed;rounded=0;glass=0;strokeColor=#000000;strokeWidth=1;align=center;verticalAlign=middle;fontFamily=Helvetica;fontSize=12;fontColor=#1A1A1A;labelBackgroundColor=none;fillColor=#FFFFFF;gradientColor=none;" parent="WIyWlLk6GJQsqaUBKTNV-1" vertex="1">
          <mxGeometry x="500" y="-590" width="120" height="120" as="geometry" />
        </mxCell>
        <mxCell id="WtzSoo93Q_WKk-_dvPQ6-3" style="edgeStyle=none;rounded=0;orthogonalLoop=1;jettySize=auto;html=1;exitX=0.5;exitY=1;exitDx=0;exitDy=0;entryX=0.5;entryY=0;entryDx=0;entryDy=0;dashed=1;strokeColor=#000000;align=center;verticalAlign=middle;fontFamily=Helvetica;fontSize=12;fontColor=#333333;labelBackgroundColor=default;endArrow=none;" edge="1" parent="WIyWlLk6GJQsqaUBKTNV-1" source="WtzSoo93Q_WKk-_dvPQ6-0" target="WtzSoo93Q_WKk-_dvPQ6-1">
          <mxGeometry relative="1" as="geometry" />
        </mxCell>
        <mxCell id="WtzSoo93Q_WKk-_dvPQ6-0" value="Начало" style="ellipse;whiteSpace=wrap;html=1;fillColor=#FFFFFF;strokeColor=#666666;fontColor=#333333;" vertex="1" parent="WIyWlLk6GJQsqaUBKTNV-1">
          <mxGeometry x="370" y="-620" width="70" height="20" as="geometry" />
        </mxCell>
        <mxCell id="WtzSoo93Q_WKk-_dvPQ6-9" style="edgeStyle=none;rounded=0;orthogonalLoop=1;jettySize=auto;html=1;entryX=0.5;entryY=0;entryDx=0;entryDy=0;strokeColor=#000000;align=center;verticalAlign=middle;fontFamily=Helvetica;fontSize=12;fontColor=#333333;labelBackgroundColor=default;endArrow=classic;startArrow=none;startFill=0;endFill=1;" edge="1" parent="WIyWlLk6GJQsqaUBKTNV-1" source="WtzSoo93Q_WKk-_dvPQ6-1" target="WtzSoo93Q_WKk-_dvPQ6-4">
          <mxGeometry relative="1" as="geometry" />
        </mxCell>
        <mxCell id="WtzSoo93Q_WKk-_dvPQ6-1" value="main()" style="rounded=0;whiteSpace=wrap;html=1;strokeColor=#666666;align=center;verticalAlign=middle;fontFamily=Helvetica;fontSize=12;fontColor=#333333;fillColor=#FFFFFF;" vertex="1" parent="WIyWlLk6GJQsqaUBKTNV-1">
          <mxGeometry x="375" y="-450" width="60" height="30" as="geometry" />
        </mxCell>
        <mxCell id="WtzSoo93Q_WKk-_dvPQ6-2" value="" style="endArrow=none;dashed=1;html=1;rounded=0;fontFamily=Helvetica;fontSize=12;fontColor=#333333;exitX=0;exitY=0.5;exitDx=0;exitDy=0;strokeColor=#000000;" edge="1" parent="WIyWlLk6GJQsqaUBKTNV-1" source="9R3Qapy6K9j2R_b-Bp_k-57">
          <mxGeometry width="50" height="50" relative="1" as="geometry">
            <mxPoint x="430" y="-420" as="sourcePoint" />
            <mxPoint x="410" y="-530" as="targetPoint" />
          </mxGeometry>
        </mxCell>
        <mxCell id="WtzSoo93Q_WKk-_dvPQ6-11" value="" style="edgeStyle=none;rounded=0;orthogonalLoop=1;jettySize=auto;html=1;strokeColor=#000000;align=center;verticalAlign=middle;fontFamily=Helvetica;fontSize=12;fontColor=#333333;labelBackgroundColor=default;endArrow=classic;startArrow=none;startFill=0;endFill=1;" edge="1" parent="WIyWlLk6GJQsqaUBKTNV-1" source="WtzSoo93Q_WKk-_dvPQ6-4" target="WtzSoo93Q_WKk-_dvPQ6-10">
          <mxGeometry relative="1" as="geometry" />
        </mxCell>
        <mxCell id="WtzSoo93Q_WKk-_dvPQ6-4" value="cout&amp;lt;&amp;lt;&quot;X = &quot;;&lt;div&gt;cin&amp;gt;&amp;gt;x;&lt;/div&gt;&lt;div&gt;cout&amp;lt;&amp;lt;&quot;N = &quot;;&lt;/div&gt;&lt;div&gt;cin&amp;gt;&amp;gt;n;&lt;/div&gt;" style="shape=parallelogram;perimeter=parallelogramPerimeter;whiteSpace=wrap;html=1;fixedSize=1;fillColor=#FFFFFF;strokeColor=#666666;fontColor=#333333;rounded=0;" vertex="1" parent="WIyWlLk6GJQsqaUBKTNV-1">
          <mxGeometry x="332.5" y="-380" width="145" height="65" as="geometry" />
        </mxCell>
        <mxCell id="WtzSoo93Q_WKk-_dvPQ6-13" value="" style="edgeStyle=none;rounded=0;orthogonalLoop=1;jettySize=auto;html=1;strokeColor=#000000;align=center;verticalAlign=middle;fontFamily=Helvetica;fontSize=12;fontColor=#333333;labelBackgroundColor=default;startArrow=none;startFill=0;endArrow=classic;endFill=1;" edge="1" parent="WIyWlLk6GJQsqaUBKTNV-1" source="WtzSoo93Q_WKk-_dvPQ6-10" target="WtzSoo93Q_WKk-_dvPQ6-12">
          <mxGeometry relative="1" as="geometry" />
        </mxCell>
        <mxCell id="WtzSoo93Q_WKk-_dvPQ6-10" value="n=n-1;" style="whiteSpace=wrap;html=1;fillColor=#FFFFFF;strokeColor=#666666;fontColor=#333333;rounded=0;" vertex="1" parent="WIyWlLk6GJQsqaUBKTNV-1">
          <mxGeometry x="377.5" y="-280" width="55" height="12.5" as="geometry" />
        </mxCell>
        <mxCell id="WtzSoo93Q_WKk-_dvPQ6-15" value="" style="edgeStyle=none;rounded=0;orthogonalLoop=1;jettySize=auto;html=1;strokeColor=#000000;align=center;verticalAlign=middle;fontFamily=Helvetica;fontSize=12;fontColor=#333333;labelBackgroundColor=default;startArrow=none;startFill=0;endArrow=classic;endFill=1;" edge="1" parent="WIyWlLk6GJQsqaUBKTNV-1" source="WtzSoo93Q_WKk-_dvPQ6-12" target="WtzSoo93Q_WKk-_dvPQ6-14">
          <mxGeometry relative="1" as="geometry" />
        </mxCell>
        <mxCell id="WtzSoo93Q_WKk-_dvPQ6-25" value="" style="edgeStyle=none;rounded=0;orthogonalLoop=1;jettySize=auto;html=1;strokeColor=#000000;align=center;verticalAlign=middle;fontFamily=Helvetica;fontSize=12;fontColor=#333333;labelBackgroundColor=default;startArrow=none;startFill=0;endArrow=classic;endFill=1;" edge="1" parent="WIyWlLk6GJQsqaUBKTNV-1" source="WtzSoo93Q_WKk-_dvPQ6-12" target="WtzSoo93Q_WKk-_dvPQ6-24">
          <mxGeometry relative="1" as="geometry">
            <Array as="points">
              <mxPoint x="610" y="-214" />
            </Array>
          </mxGeometry>
        </mxCell>
        <mxCell id="WtzSoo93Q_WKk-_dvPQ6-12" value="for(int i=0;i&amp;lt;=n;i++)" style="shape=hexagon;perimeter=hexagonPerimeter2;whiteSpace=wrap;html=1;fixedSize=1;fillColor=#FFFFFF;strokeColor=#666666;fontColor=#333333;rounded=0;" vertex="1" parent="WIyWlLk6GJQsqaUBKTNV-1">
          <mxGeometry x="342.5" y="-230" width="125" height="31.25" as="geometry" />
        </mxCell>
        <mxCell id="WtzSoo93Q_WKk-_dvPQ6-17" value="" style="edgeStyle=none;rounded=0;orthogonalLoop=1;jettySize=auto;html=1;strokeColor=#000000;align=center;verticalAlign=middle;fontFamily=Helvetica;fontSize=12;fontColor=#333333;labelBackgroundColor=default;startArrow=none;startFill=0;endArrow=classic;endFill=1;" edge="1" parent="WIyWlLk6GJQsqaUBKTNV-1" source="WtzSoo93Q_WKk-_dvPQ6-14" target="WtzSoo93Q_WKk-_dvPQ6-16">
          <mxGeometry relative="1" as="geometry" />
        </mxCell>
        <mxCell id="WtzSoo93Q_WKk-_dvPQ6-19" style="edgeStyle=none;rounded=0;orthogonalLoop=1;jettySize=auto;html=1;exitX=1;exitY=0.5;exitDx=0;exitDy=0;strokeColor=#000000;align=center;verticalAlign=middle;fontFamily=Helvetica;fontSize=12;fontColor=#333333;labelBackgroundColor=default;startArrow=none;startFill=0;endArrow=classic;endFill=1;entryX=0.5;entryY=0;entryDx=0;entryDy=0;" edge="1" parent="WIyWlLk6GJQsqaUBKTNV-1" source="WtzSoo93Q_WKk-_dvPQ6-14">
          <mxGeometry relative="1" as="geometry">
            <mxPoint x="405" y="30" as="targetPoint" />
            <Array as="points">
              <mxPoint x="520" y="-133" />
              <mxPoint x="520" />
              <mxPoint x="405" />
            </Array>
          </mxGeometry>
        </mxCell>
        <mxCell id="WtzSoo93Q_WKk-_dvPQ6-14" value="for(int ifact=i*2;ifact&amp;gt;0;ifact--)" style="shape=hexagon;perimeter=hexagonPerimeter2;whiteSpace=wrap;html=1;fixedSize=1;fillColor=#FFFFFF;strokeColor=#666666;fontColor=#333333;rounded=0;" vertex="1" parent="WIyWlLk6GJQsqaUBKTNV-1">
          <mxGeometry x="332.5" y="-160" width="145" height="53.13" as="geometry" />
        </mxCell>
        <mxCell id="WtzSoo93Q_WKk-_dvPQ6-18" style="edgeStyle=none;rounded=0;orthogonalLoop=1;jettySize=auto;html=1;entryX=0;entryY=0.5;entryDx=0;entryDy=0;strokeColor=#000000;align=center;verticalAlign=middle;fontFamily=Helvetica;fontSize=12;fontColor=#333333;labelBackgroundColor=default;startArrow=none;startFill=0;endArrow=classic;endFill=1;" edge="1" parent="WIyWlLk6GJQsqaUBKTNV-1" source="WtzSoo93Q_WKk-_dvPQ6-16" target="WtzSoo93Q_WKk-_dvPQ6-14">
          <mxGeometry relative="1" as="geometry">
            <Array as="points">
              <mxPoint x="405" y="-20" />
              <mxPoint x="280" y="-20" />
              <mxPoint x="280" y="-133" />
            </Array>
          </mxGeometry>
        </mxCell>
        <mxCell id="WtzSoo93Q_WKk-_dvPQ6-16" value="fact*=ifact;" style="whiteSpace=wrap;html=1;fillColor=#FFFFFF;strokeColor=#666666;fontColor=#333333;rounded=0;" vertex="1" parent="WIyWlLk6GJQsqaUBKTNV-1">
          <mxGeometry x="352.5" y="-70" width="105" height="20.31" as="geometry" />
        </mxCell>
        <mxCell id="WtzSoo93Q_WKk-_dvPQ6-23" style="edgeStyle=none;rounded=0;orthogonalLoop=1;jettySize=auto;html=1;entryX=0;entryY=0.5;entryDx=0;entryDy=0;strokeColor=#000000;align=center;verticalAlign=middle;fontFamily=Helvetica;fontSize=12;fontColor=#333333;labelBackgroundColor=default;startArrow=none;startFill=0;endArrow=classic;endFill=1;" edge="1" parent="WIyWlLk6GJQsqaUBKTNV-1" source="WtzSoo93Q_WKk-_dvPQ6-21" target="WtzSoo93Q_WKk-_dvPQ6-12">
          <mxGeometry relative="1" as="geometry">
            <Array as="points">
              <mxPoint x="405" y="120" />
              <mxPoint x="250" y="120" />
              <mxPoint x="250" y="-214" />
            </Array>
          </mxGeometry>
        </mxCell>
        <mxCell id="WtzSoo93Q_WKk-_dvPQ6-21" value="s=s+pow(-1,i)*((2*pow(i,2)+1)/fact)*pow(x,2*i);&lt;div&gt;fact=1;&lt;/div&gt;" style="rounded=0;whiteSpace=wrap;html=1;strokeColor=#666666;align=center;verticalAlign=middle;fontFamily=Helvetica;fontSize=12;fontColor=#333333;fillColor=#FFFFFF;" vertex="1" parent="WIyWlLk6GJQsqaUBKTNV-1">
          <mxGeometry x="306.25" y="30" width="197.5" height="40" as="geometry" />
        </mxCell>
        <mxCell id="WtzSoo93Q_WKk-_dvPQ6-27" value="" style="edgeStyle=none;rounded=0;orthogonalLoop=1;jettySize=auto;html=1;strokeColor=#000000;align=center;verticalAlign=middle;fontFamily=Helvetica;fontSize=12;fontColor=#333333;labelBackgroundColor=default;startArrow=none;startFill=0;endArrow=classic;endFill=1;" edge="1" parent="WIyWlLk6GJQsqaUBKTNV-1" source="WtzSoo93Q_WKk-_dvPQ6-24" target="WtzSoo93Q_WKk-_dvPQ6-26">
          <mxGeometry relative="1" as="geometry" />
        </mxCell>
        <mxCell id="WtzSoo93Q_WKk-_dvPQ6-24" value="coit&amp;lt;&amp;lt;&quot;S = &quot;&amp;lt;&amp;lt;endl;" style="shape=parallelogram;perimeter=parallelogramPerimeter;whiteSpace=wrap;html=1;fixedSize=1;fillColor=#FFFFFF;strokeColor=#666666;fontColor=#333333;rounded=0;" vertex="1" parent="WIyWlLk6GJQsqaUBKTNV-1">
          <mxGeometry x="540" y="-179.99" width="140" height="50" as="geometry" />
        </mxCell>
        <mxCell id="WtzSoo93Q_WKk-_dvPQ6-29" value="" style="edgeStyle=none;rounded=0;orthogonalLoop=1;jettySize=auto;html=1;strokeColor=#000000;align=center;verticalAlign=middle;fontFamily=Helvetica;fontSize=12;fontColor=#333333;labelBackgroundColor=default;startArrow=none;startFill=0;endArrow=classic;endFill=1;" edge="1" parent="WIyWlLk6GJQsqaUBKTNV-1" source="WtzSoo93Q_WKk-_dvPQ6-26" target="WtzSoo93Q_WKk-_dvPQ6-28">
          <mxGeometry relative="1" as="geometry" />
        </mxCell>
        <mxCell id="WtzSoo93Q_WKk-_dvPQ6-26" value="return(0);" style="whiteSpace=wrap;html=1;fillColor=#FFFFFF;strokeColor=#666666;fontColor=#333333;rounded=0;" vertex="1" parent="WIyWlLk6GJQsqaUBKTNV-1">
          <mxGeometry x="580" y="-106.87" width="60" height="14.99" as="geometry" />
        </mxCell>
        <mxCell id="WtzSoo93Q_WKk-_dvPQ6-28" value="конец" style="ellipse;whiteSpace=wrap;html=1;fillColor=#FFFFFF;strokeColor=#666666;fontColor=#333333;rounded=0;" vertex="1" parent="WIyWlLk6GJQsqaUBKTNV-1">
          <mxGeometry x="575" y="-64.08" width="70" height="14.39" as="geometry" />
        </mxCell>
        <mxCell id="WtzSoo93Q_WKk-_dvPQ6-30" value="}" style="text;html=1;align=center;verticalAlign=middle;resizable=0;points=[];autosize=1;strokeColor=none;fillColor=none;fontFamily=Helvetica;fontSize=12;fontColor=#333333;" vertex="1" parent="WIyWlLk6GJQsqaUBKTNV-1">
          <mxGeometry x="605" y="-92" width="30" height="30" as="geometry" />
        </mxCell>
        <mxCell id="WtzSoo93Q_WKk-_dvPQ6-31" value="{" style="text;html=1;align=center;verticalAlign=middle;resizable=0;points=[];autosize=1;strokeColor=none;fillColor=none;fontFamily=Helvetica;fontSize=12;fontColor=#333333;" vertex="1" parent="WIyWlLk6GJQsqaUBKTNV-1">
          <mxGeometry x="375" y="-412" width="30" height="30" as="geometry" />
        </mxCell>
        <mxCell id="WtzSoo93Q_WKk-_dvPQ6-32" value="{" style="text;html=1;align=center;verticalAlign=middle;resizable=0;points=[];autosize=1;strokeColor=none;fillColor=none;fontFamily=Helvetica;fontSize=12;fontColor=#333333;" vertex="1" parent="WIyWlLk6GJQsqaUBKTNV-1">
          <mxGeometry x="365" y="-192" width="30" height="30" as="geometry" />
        </mxCell>
        <mxCell id="WtzSoo93Q_WKk-_dvPQ6-33" value="{" style="text;html=1;align=center;verticalAlign=middle;resizable=0;points=[];autosize=1;strokeColor=none;fillColor=none;fontFamily=Helvetica;fontSize=12;fontColor=#333333;" vertex="1" parent="WIyWlLk6GJQsqaUBKTNV-1">
          <mxGeometry x="375" y="-112" width="30" height="30" as="geometry" />
        </mxCell>
        <mxCell id="WtzSoo93Q_WKk-_dvPQ6-34" value="};" style="text;html=1;align=center;verticalAlign=middle;resizable=0;points=[];autosize=1;strokeColor=none;fillColor=none;fontFamily=Helvetica;fontSize=12;fontColor=#333333;" vertex="1" parent="WIyWlLk6GJQsqaUBKTNV-1">
          <mxGeometry x="395" y="-52" width="30" height="30" as="geometry" />
        </mxCell>
        <mxCell id="WtzSoo93Q_WKk-_dvPQ6-35" value="};" style="text;html=1;align=center;verticalAlign=middle;resizable=0;points=[];autosize=1;strokeColor=none;fillColor=none;fontFamily=Helvetica;fontSize=12;fontColor=#333333;" vertex="1" parent="WIyWlLk6GJQsqaUBKTNV-1">
          <mxGeometry x="405" y="78" width="30" height="30" as="geometry" />
        </mxCell>
      </root>
    </mxGraphModel>
  </diagram>
</mxfile>
